<svg width="160" height="31" viewBox="0 0 160 31" fill="none" xmlns="http://www.w3.org/2000/svg">
<g clip-path="url(#clip0)">
<path d="M8.21506 30.4784C6.052 30.4784 4.31465 29.7995 3.00301 28.4419C1.71438 27.0842 1.07007 25.2203 1.07007 22.8501V9.18147C1.07007 6.23603 1.65685 4.01545 2.83043 2.51972C4.004 1.02399 5.8449 0.276123 8.35312 0.276123C10.5392 0.276123 12.2995 0.874416 13.6342 2.071C14.9689 3.26758 15.6362 4.99343 15.6362 7.24853V12.357H9.7338V7.97338C9.7338 7.12196 9.63025 6.53518 9.42315 6.21302C9.21605 5.89086 8.85937 5.72979 8.35312 5.72979C7.82387 5.72979 7.45569 5.91388 7.24858 6.28205C7.0645 6.65023 6.97245 7.191 6.97245 7.90435V22.7811C6.97245 23.5635 7.08751 24.1388 7.31762 24.5069C7.54773 24.8521 7.8929 25.0247 8.35312 25.0247C9.27357 25.0247 9.7338 24.2768 9.7338 22.7811V17.431H15.7052V23.0227C15.7052 27.9931 13.2085 30.4784 8.21506 30.4784Z" fill="white"/>
<path d="M54.7351 30.5618L51.0763 0.877289H56.737L58.9116 21.0696L60.8445 0.877289H66.5053L62.8465 30.5618H54.7351Z" fill="white"/>
<path d="M74.3838 30.5618V0.911835H80.1136V30.5618H74.3838Z" fill="white"/>
<path d="M131.713 7.35209C131.322 7.83533 130.77 8.22652 130.057 8.52567C129.366 8.82481 128.699 8.97439 128.055 8.97439V4.24558C129.067 4.0845 130.068 3.6818 131.058 3.03749C132.07 2.39317 132.795 1.55327 133.232 0.517761H137.995V30.2022H131.713V7.35209Z" fill="white"/>
<path d="M151.523 30.8379C150.235 30.8379 149.049 30.6193 147.968 30.1821C146.909 29.7219 146.058 29.0545 145.414 28.1801C144.769 27.3057 144.447 26.2472 144.447 25.0046V21.829H150.143V22.4158C150.143 23.4053 150.235 24.1877 150.419 24.7629C150.603 25.3382 151.005 25.6259 151.627 25.6259C152.271 25.6259 152.72 25.4533 152.973 25.1081C153.249 24.7399 153.387 24.1992 153.387 23.4858V17.5489C153.111 18.0782 152.685 18.5039 152.11 18.826C151.535 19.1482 150.856 19.3093 150.073 19.3093C148.463 19.3093 147.209 18.9871 146.311 18.3428C145.437 17.6985 144.827 16.7435 144.482 15.4779C144.137 14.2123 143.964 12.544 143.964 10.473C143.964 7.32044 144.562 4.89276 145.759 3.18993C146.955 1.4871 148.934 0.635681 151.696 0.635681C153.721 0.635681 155.32 0.980849 156.494 1.67119C157.667 2.36152 158.496 3.39703 158.979 4.7777C159.462 6.15837 159.704 7.95325 159.704 10.1623V18.1702C159.704 21.2307 159.52 23.6469 159.151 25.4188C158.783 27.1676 158.012 28.5138 156.839 29.4572C155.665 30.3777 153.893 30.8379 151.523 30.8379ZM151.834 14.0627C152.869 14.0627 153.387 13.3609 153.387 11.9572V8.2639C153.387 6.81419 152.892 6.08934 151.903 6.08934C151.282 6.08934 150.879 6.34246 150.695 6.84871C150.534 7.33195 150.453 8.12583 150.453 9.23037V11.6465C150.453 13.2573 150.913 14.0627 151.834 14.0627Z" fill="white"/>
<path d="M88.3229 0.911835H96.5034C98.6204 0.911835 100.208 1.49862 101.267 2.67219C102.325 3.84577 102.866 5.58311 102.889 7.88424L102.958 21.76C102.981 24.6824 102.475 26.88 101.439 28.3527C100.404 29.8254 98.6894 30.5618 96.2963 30.5618H88.3229V0.911835ZM95.3298 25.3152C96.4113 25.3152 96.9521 24.786 96.9521 23.7275V8.43651C96.9521 7.76918 96.8946 7.27444 96.7795 6.95228C96.6875 6.60711 96.5034 6.377 96.2272 6.26195C95.9511 6.14689 95.5254 6.08936 94.9501 6.08936H94.2943V25.3152H95.3298Z" fill="white"/>
<path d="M110.664 18.7311V14.8307H119.362V18.7311H110.664Z" fill="white"/>
<path d="M32.9423 6.89335C32.6684 6.89335 32.4463 6.67151 32.4463 6.3976V4.41378C32.4463 4.13987 32.6684 3.91782 32.9423 3.91782C33.2161 3.91782 33.4382 4.13987 33.4382 4.41378V6.3976C33.4382 6.67151 33.2161 6.89335 32.9423 6.89335Z" fill="#8C79F6"/>
<path d="M26.2795 9.65337C26.1481 9.65316 26.0219 9.60091 25.9288 9.5079L24.1751 7.75444C23.9873 7.55982 23.9899 7.25039 24.1813 7.05925C24.3727 6.86786 24.6819 6.86524 24.8765 7.05311L26.6302 8.80674C26.772 8.94851 26.8143 9.1618 26.7375 9.34704C26.6609 9.53246 26.4801 9.65316 26.2795 9.65337Z" fill="#8C79F6"/>
<path d="M23.5196 16.3162H21.5358C21.2619 16.3162 21.0398 16.0941 21.0398 15.8202C21.0398 15.5463 21.2619 15.3242 21.5358 15.3242H23.5196C23.7935 15.3242 24.0155 15.5463 24.0155 15.8202C24.0155 16.0941 23.7935 16.3162 23.5196 16.3162Z" fill="#8C79F6"/>
<path d="M24.5259 24.7326C24.3253 24.7326 24.1445 24.6117 24.0679 24.4264C23.991 24.2412 24.0334 24.0279 24.1752 23.8859L25.9288 22.1325C26.1234 21.9445 26.4327 21.9471 26.624 22.1385C26.8154 22.3298 26.818 22.639 26.6302 22.8337L24.8765 24.5873C24.7835 24.6804 24.6573 24.7326 24.5259 24.7326Z" fill="#8C79F6"/>
<path d="M32.9423 27.7226C32.6684 27.7226 32.4463 27.5006 32.4463 27.2267V25.2428C32.4463 24.9689 32.6684 24.7471 32.9423 24.7471C33.2161 24.7471 33.4382 24.9689 33.4382 25.2428V27.2267C33.4382 27.5006 33.2161 27.7226 32.9423 27.7226Z" fill="#8C79F6"/>
<path d="M41.3587 24.7326C41.2271 24.7326 41.1009 24.6804 41.0082 24.5873L39.2546 22.8337C39.0666 22.639 39.0691 22.3298 39.2604 22.1385C39.4517 21.9471 39.7609 21.9445 39.9557 22.1325L41.7093 23.8859C41.8509 24.0279 41.8934 24.2412 41.8168 24.4264C41.7402 24.6117 41.5593 24.7326 41.3587 24.7326Z" fill="#8C79F6"/>
<path d="M44.8445 16.3162H42.3651C42.0911 16.3162 41.8689 16.0941 41.8689 15.8202C41.8689 15.5463 42.0911 15.3242 42.3651 15.3242H44.8445C45.1185 15.3242 45.3407 15.5463 45.3407 15.8202C45.3407 16.0941 45.1185 16.3162 44.8445 16.3162Z" fill="#8C79F6"/>
<path d="M39.6052 9.65339C39.4046 9.65317 39.2238 9.53247 39.1472 9.34705C39.0702 9.16181 39.113 8.94853 39.2547 8.80676L41.0082 7.05312C41.1326 6.92429 41.3171 6.87248 41.4904 6.91793C41.6637 6.96334 41.7992 7.09875 41.8445 7.27212C41.8902 7.4455 41.8381 7.62984 41.7093 7.75446L39.9558 9.50791C39.8627 9.60093 39.7368 9.65317 39.6052 9.65339Z" fill="#8C79F6"/>
<path d="M42.3652 15.8202C42.3652 21.0243 38.1462 25.2428 32.9423 25.2428C27.7382 25.2428 23.5197 21.0243 23.5197 15.8202C23.5197 10.6161 27.7382 6.39758 32.9423 6.39758C38.1462 6.39758 42.3652 10.6161 42.3652 15.8202Z" fill="#8C79F6"/>
<path d="M32.9423 23.7551C32.6684 23.7551 32.4463 23.533 32.4463 23.2592C32.4463 22.9853 32.6684 22.7632 32.9423 22.7632C36.7752 22.759 39.8814 19.6529 39.8853 15.8202C39.8853 15.5463 40.1075 15.3242 40.3811 15.3242C40.6551 15.3242 40.8773 15.5463 40.8773 15.8202C40.8719 20.2005 37.3224 23.7499 32.9423 23.7551Z" fill="#8C79F6"/>
<path d="M36.9097 12.3487C36.9097 13.4442 36.0216 14.3323 34.9261 14.3323C33.8304 14.3323 32.9423 13.4442 32.9423 12.3487C32.9423 11.2532 33.8304 10.3651 34.9261 10.3651C36.0216 10.3651 36.9097 11.2532 36.9097 12.3487Z" fill="#8C79F6"/>
<path d="M29.9666 13.8366C29.9666 14.6582 29.3006 15.3243 28.4788 15.3243C27.6571 15.3243 26.9911 14.6582 26.9911 13.8366C26.9911 13.0148 27.6571 12.3487 28.4788 12.3487C29.3006 12.3487 29.9666 13.0148 29.9666 13.8366Z" fill="#8C79F6"/>
<path d="M34.4302 18.2998C34.4302 19.1216 33.7639 19.7877 32.9423 19.7877C32.1206 19.7877 31.4546 19.1216 31.4546 18.2998C31.4546 17.4782 32.1206 16.8121 32.9423 16.8121C33.7639 16.8121 34.4302 17.4782 34.4302 18.2998Z" fill="#8C79F6"/>
<path d="M27.4871 18.7958C27.4221 18.7951 27.3582 18.7815 27.2985 18.756C27.2384 18.731 27.1831 18.6957 27.1348 18.652C27.0901 18.6046 27.0547 18.5491 27.0308 18.4883C27.0054 18.4286 26.9917 18.3648 26.9911 18.2998C26.9931 18.1686 27.0444 18.0428 27.1348 17.9478C27.1831 17.9039 27.2384 17.8688 27.2985 17.8436C27.4835 17.7687 27.6951 17.8095 27.8391 17.9478C27.9297 18.0428 27.981 18.1686 27.983 18.2998C27.9821 18.3648 27.9687 18.4286 27.9433 18.4883C27.9194 18.5491 27.8838 18.6046 27.8391 18.652C27.744 18.7425 27.6183 18.7938 27.4871 18.7958Z" fill="#8C79F6"/>
<path d="M29.9666 21.7713C29.9019 21.7707 29.8378 21.7571 29.7782 21.7318C29.718 21.7066 29.6627 21.6713 29.6144 21.6276C29.5696 21.5802 29.5343 21.5247 29.5104 21.4639C29.4849 21.4044 29.4716 21.3403 29.4707 21.2754C29.4726 21.1441 29.524 21.0184 29.6144 20.9234C29.6627 20.8797 29.718 20.8444 29.7782 20.8191C29.9631 20.7443 30.1749 20.7851 30.3187 20.9234C30.4093 21.0184 30.4606 21.1441 30.4626 21.2754C30.4617 21.3403 30.4483 21.4044 30.4229 21.4639C30.3989 21.5247 30.3636 21.5802 30.3187 21.6276C30.2236 21.7182 30.0979 21.7696 29.9666 21.7713Z" fill="#8C79F6"/>
<path d="M34.4302 2.92609C34.4302 3.7477 33.7639 4.41377 32.9423 4.41377C32.1206 4.41377 31.4546 3.7477 31.4546 2.92609C31.4546 2.10424 32.1206 1.4382 32.9423 1.4382C33.7639 1.4382 34.4302 2.10424 34.4302 2.92609Z" fill="#8C79F6"/>
<path d="M25.1071 6.00124C25.1071 7.09675 24.2188 7.98488 23.1232 7.98488C22.0278 7.98488 21.1396 7.09675 21.1396 6.00124C21.1396 4.90576 22.0278 4.01764 23.1232 4.01764C24.2188 4.01764 25.1071 4.90576 25.1071 6.00124Z" fill="#8C79F6"/>
<path d="M21.5358 15.8202C21.5358 16.5049 20.9808 17.0601 20.2961 17.0601C19.6112 17.0601 19.0562 16.5049 19.0562 15.8202C19.0562 15.1355 19.6112 14.5803 20.2961 14.5803C20.9808 14.5803 21.5358 15.1355 21.5358 15.8202Z" fill="#8C79F6"/>
<path d="M25.1071 25.6392C25.1071 26.7346 24.2188 27.6228 23.1232 27.6228C22.0278 27.6228 21.1396 26.7346 21.1396 25.6392C21.1396 24.5436 22.0278 23.6555 23.1232 23.6555C24.2188 23.6555 25.1071 24.5436 25.1071 25.6392Z" fill="#8C79F6"/>
<path d="M34.4302 28.7143C34.4302 29.5362 33.7639 30.2022 32.9423 30.2022C32.1206 30.2022 31.4546 29.5362 31.4546 28.7143C31.4546 27.8927 32.1206 27.2267 32.9423 27.2267C33.7639 27.2267 34.4302 27.8927 34.4302 28.7143Z" fill="#8C79F6"/>
<path d="M44.745 25.6392C44.745 26.7346 43.8565 27.6228 42.7613 27.6228C41.6658 27.6228 40.7777 26.7346 40.7777 25.6392C40.7777 24.5436 41.6658 23.6555 42.7613 23.6555C43.8565 23.6555 44.745 24.5436 44.745 25.6392Z" fill="#8C79F6"/>
<path d="M47.8202 15.8202C47.8202 16.6419 47.1544 17.3081 46.3324 17.3081C45.5109 17.3081 44.8446 16.6419 44.8446 15.8202C44.8446 14.9986 45.5109 14.3323 46.3324 14.3323C47.1544 14.3323 47.8202 14.9986 47.8202 15.8202Z" fill="#8C79F6"/>
<path d="M44.745 6.00124C44.745 7.09675 43.8565 7.98488 42.7613 7.98488C41.6658 7.98488 40.7777 7.09675 40.7777 6.00124C40.7777 4.90576 41.6658 4.01764 42.7613 4.01764C43.8565 4.01764 44.745 4.90576 44.745 6.00124Z" fill="#8C79F6"/>
</g>
<defs>
<clipPath id="clip0">
<rect width="160" height="30.9213" fill="white"/>
</clipPath>
</defs>
</svg>
